<?xml version="1.0" encoding="utf-8"?>
<!-- Generator: Adobe Illustrator 15.0.0, SVG Export Plug-In . SVG Version: 6.00 Build 0)  -->
<!DOCTYPE svg PUBLIC "-//W3C//DTD SVG 1.1//EN" "http://www.w3.org/Graphics/SVG/1.1/DTD/svg11.dtd">
<svg version="1.1" id="Layer_1" xmlns="http://www.w3.org/2000/svg" xmlns:xlink="http://www.w3.org/1999/xlink" x="0px" y="0px"
	 width="1000px" height="500px" viewBox="0 0 1000 500" enable-background="new 0 0 1000 500" xml:space="preserve">
<g>
	<path fill="#3D3939" d="M762.055,164.254h74.845v14.815h26.73v-14.815v-2.734c-0.004-0.045-0.009-0.061-0.009-0.11
		c0-3.942-3.091-7.137-6.927-7.203h-43.255v-13.81h-27.976v13.81h-50.135v5.025v5.022v14.815h26.726V164.254z"/>
	<polygon fill="#3D3939" points="600.133,141.673 572.726,206.484 593.752,206.484 593.752,283.609 616.744,283.609 616.744,181.31 
		608.412,181.31 625.727,141.673 	"/>
	<path fill="#3D3939" d="M866.798,280.418l-8.496-28.711c-0.56-1.806-2.199-3.12-4.144-3.124h-22.256l6.447,21.788h-26.164V228.17
		h51.385v-10.048h-51.385v-19.861h51.385v-10.047h-51.385h-25.473h-51.384v10.047h51.384v19.861h-51.384v10.048h51.384v42.202
		h-51.384v10.047H866.798z"/>
	<path fill="#3D3939" d="M654.196,191.775h-19.902l15.5,48.826h23.552l-14.425-45.8
		C658.052,193.021,656.266,191.795,654.196,191.775"/>
	<path fill="#3D3939" d="M709.299,142.85h-23.888v24.963h-58.886v10.048h58.886v89.751c-0.206,2.049-1.827,3.648-3.852,3.76h-12.146
		v10.402h30.967c4.896-0.205,8.812-4.266,8.919-9.314v-1.088V177.86h9.705v-10.048h-9.705V142.85z"/>
	<path fill="#3D3939" d="M569.1,274.209c-21.814-7.943-39.092-16.678-52.662-25.103c19.654-14.562,36.881-34.333,43.792-60.774
		h-45.9v-16.447h53.22v-10.243h-53.22v-20.841h-23.721l-0.006,0.003c-2.595,0-4.696,2.178-4.696,4.868l0,0v15.97h-52.842v10.243
		h52.842v16.447h-44.601v10.237h88.838c0,0-4.93,19.217-29.297,39.873c-21.827-16.525-29.121-29.687-29.121-29.687h-23.833
		c9.634,16.697,23.328,30.08,38.073,40.689c-13.557,8.812-31.092,17.312-53.83,24.106v12.268c0,0,35.054-6.616,68.941-26.579
		c33.935,19.808,68.023,26.579,68.023,26.579V274.209z"/>
	<path fill="#3D3939" d="M484.904,352.116l3.968,11.978h11.122l-21.909-59.481h-8.504l-21.829,59.481h11.138l4.137-11.978H484.904z
		 M474.144,319.948l8.23,24.67h-16.754L474.144,319.948z"/>
	<polygon fill="#3D3939" points="535.093,304.612 535.093,364.097 571.113,364.097 571.113,355.997 545.8,355.997 545.8,304.612 	
		"/>
	<rect x="610.36" y="304.612" fill="#3D3939" width="10.702" height="59.485"/>
	<path fill="#3D3939" d="M687.553,304.612h-23.127v59.481h10.707v-22.862h12.42c11.531,0,19.59-7.532,19.59-18.312
		C707.143,312.137,699.084,304.612,687.553,304.612 M686.95,333.053h-11.817v-20.351h11.817c5.939,0,9.49,5.193,9.49,10.216
		C696.44,327.835,693.117,333.053,686.95,333.053"/>
	<path fill="#3D3939" d="M769.983,352.116l3.964,11.978h11.125l-21.912-59.481h-8.499l-21.828,59.481h11.129l4.141-11.978H769.983z
		 M759.22,319.948l8.23,24.67h-16.758L759.22,319.948z"/>
	<polygon fill="#3D3939" points="844.667,304.612 832.998,329.958 821.151,304.612 809.586,304.612 827.598,339.662 
		827.598,364.097 838.221,364.097 838.221,339.662 838.287,339.526 856.231,304.612 	"/>
	<path fill="#009FE8" d="M187.551,263.334c-6.43,0.643-18.501,3.479-25.104,9.293c-19.791,17.201-7.954,48.655,32.091,48.655
		c23.271,0,46.534-14.839,64.802-38.595C233.354,270.039,211.338,260.992,187.551,263.334"/>
	<path fill="#009FE8" d="M341.155,123.923H166.222c-22.782,0-41.231,18.401-41.231,41.117v174.422
		c0,22.695,18.449,41.103,41.231,41.103h174.934c22.778,0,41.216-18.407,41.216-41.103v-1.715h-0.004v0.027
		c0,0-66.941-27.824-100.75-44.036c-22.67,27.821-51.92,44.703-82.284,44.703c-51.354,0-68.792-44.815-44.479-74.314
		c5.302-6.43,14.32-12.567,28.321-16.007c21.893-5.363,56.745,3.347,89.402,14.092c5.869-10.794,10.818-22.672,14.498-35.322
		H186.427v-10.171h51.896v-18.221h-62.858v-10.171h62.858v-25.998c0,0,0-4.376,4.45-4.376h25.363v30.374h62.15v10.171h-62.15v18.221
		h50.734c-4.855,19.832-12.233,38.078-21.481,54.101c15.394,5.555,29.217,10.814,39.514,14.255
		c37.061,12.372,45.464,13.042,45.464,13.042v0.004h0.004v-0.108V165.04C382.372,142.324,363.933,123.923,341.155,123.923"/>
</g>
<rect fill="none" width="1000" height="500"/>
</svg>
